<svg xmlns="http://www.w3.org/2000/svg" xmlns:xlink="http://www.w3.org/1999/xlink" style="display: none;">

  <!-- Главная иконка (main) -->
  <symbol fill="none" viewBox="0 0 24 24" id="main" xmlns="http://www.w3.org/2000/svg">
    <path fill-rule="evenodd" clip-rule="evenodd" d="M14 4h5a1 1 0 0 1 1 1v5a1 1 0 0 1-1 1h-5a1 1 0 0 1-1-1V5a1 1 0 0 1 1-1Zm1 2v3h3V6h-3ZM4 5a1 1 0 0 1 1-1h5a1 1 0 0 1 1 1v5a1 1 0 0 1-1 1H5a1 1 0 0 1-1-1V5Zm2 1v3h3V6H6Zm8 7h5a1 1 0 0 1 1 1v5a1 1 0 0 1-1 1h-5a1 1 0 0 1-1-1v-5a1 1 0 0 1 1-1Zm1 2v3h3v-3h-3ZM4 14a1 1 0 0 1 1-1h5a1 1 0 0 1 1 1v5a1 1 0 0 1-1 1H5a1 1 0 0 1-1-1v-5Zm2 1v3h3v-3H6Z" fill="currentColor"/>
  </symbol>

  <!-- Каталок иконка (catalog) -->
  <symbol id="catalog" fill="none" viewBox="0 0 24 24" xmlns="http://www.w3.org/2000/svg">
    <path d="M7 7.5a1 1 0 0 1-1 1H3a1 1 0 0 1 0-2h3a1 1 0 0 1 1 1Zm0 5a1 1 0 0 0-1-1H3a1 1 0 1 0 0 2h3a1 1 0 0 0 1-1Zm14.296 5.294a.998.998 0 0 1-1.412 0L16.76 14.67c-.8.52-1.74.83-2.76.83-2.76 0-5-2.24-5-5s2.24-5 5-5 5 2.24 5 5c0 1.02-.31 1.96-.83 2.75l3.126 3.134a.998.998 0 0 1 0 1.41ZM17 10.5c0-1.65-1.35-3-3-3s-3 1.35-3 3 1.35 3 3 3 3-1.35 3-3Zm-15 7a1 1 0 0 0 1 1h8a1 1 0 1 0 0-2H3a1 1 0 0 0-1 1Z" fill="currentColor"/>
  </symbol>

  <!-- Избранной икнонка (favorite) -->
  <symbol id="favorite" fill="none" viewBox="0 0 24 24" xmlns="http://www.w3.org/2000/svg">
    <path fill-rule="evenodd" clip-rule="evenodd" d="M2 8.796C2 5.528 4.656 3 7.95 3c1.494 0 2.935.539 4.05 1.442A6.483 6.483 0 0 1 16.05 3C19.344 3 22 5.528 22 8.796c0 1.987-.932 3.706-2.345 5.38-1.39 1.647-3.357 3.375-5.627 5.37l-.062.053-1.304 1.151a1 1 0 0 1-1.32.003l-1.306-1.143-.002-.002-.085-.075c-2.26-1.99-4.218-3.713-5.604-5.356C2.932 12.502 2 10.783 2 8.796ZM7.95 5C5.7 5 4 6.692 4 8.796c0 1.309.598 2.58 1.874 4.092 1.285 1.523 3.143 3.16 5.48 5.218l.002.001.642.562.647-.571c2.338-2.054 4.196-3.69 5.482-5.212C19.401 11.376 20 10.105 20 8.796 20 6.692 18.3 5 16.05 5c-1.275 0-2.505.58-3.299 1.483a1 1 0 0 1-1.502 0A4.462 4.462 0 0 0 7.95 5Z" fill="currentColor"/>
  </symbol>

  <!-- Корзина (cart) -->
  <symbol id="cart" fill="none" viewBox="0 0 24 24" xmlns="http://www.w3.org/2000/svg">
    <path d="M16.546 13c.75 0 1.41-.41 1.75-1.03l3.58-6.49a.996.996 0 0 0-.87-1.48h-14.8l-.67-1.425A1 1 0 0 0 4.631 2H2.996a1 1 0 1 0 0 2h1l3.6 7.59-1.35 2.44c-.73 1.34.23 2.97 1.75 2.97h11a1 1 0 1 0 0-2h-11l1.1-2h7.45Zm-9.39-7h12.15l-2.76 5h-7.02l-2.37-5Zm.84 12c-1.1 0-1.99.9-1.99 2s.89 2 1.99 2 2-.9 2-2-.9-2-2-2Zm10 0c-1.1 0-1.99.9-1.99 2s.89 2 1.99 2 2-.9 2-2-.9-2-2-2Z" fill="currentColor"/>
  </symbol>

  <!-- Аккаунт (account) -->
  <symbol id="account" fill="none" viewBox="0 0 24 24" xmlns="http://www.w3.org/2000/svg">
    <path d="M12 2C6.48 2 2 6.48 2 12s4.48 10 10 10 10-4.48 10-10S17.52 2 12 2ZM7.07 18.28c.43-.9 3.05-1.78 4.93-1.78s4.51.88 4.93 1.78A7.893 7.893 0 0 1 12 20c-1.86 0-3.57-.64-4.93-1.72Zm11.29-1.45c-1.43-1.74-4.9-2.33-6.36-2.33s-4.93.59-6.36 2.33A7.95 7.95 0 0 1 4 12c0-4.41 3.59-8 8-8s8 3.59 8 8c0 1.82-.62 3.49-1.64 4.83ZM12 6c-1.94 0-3.5 1.56-3.5 3.5S10.06 13 12 13s3.5-1.56 3.5-3.5S13.94 6 12 6Zm0 5c-.83 0-1.5-.67-1.5-1.5S11.17 8 12 8s1.5.67 1.5 1.5S12.83 11 12 11Z" fill="currentColor"/>
  </symbol>

</svg>
